<svg width="14" height="18" viewBox="0 0 14 18" fill="none" xmlns="http://www.w3.org/2000/svg">
<path d="M5.75 15.692C6.294 15.692 6.75367 15.5043 7.129 15.129C7.50433 14.753 7.692 14.2933 7.692 13.75V9.77H10.423V8.23H6.923V12.317C6.76567 12.1457 6.589 12.018 6.393 11.934C6.19767 11.85 5.98333 11.808 5.75 11.808C5.20667 11.808 4.747 11.9957 4.371 12.371C3.99567 12.747 3.808 13.2067 3.808 13.75C3.808 14.2933 3.99567 14.753 4.371 15.129C4.747 15.5043 5.20667 15.692 5.75 15.692ZM1.616 18C1.15533 18 0.771 17.846 0.463 17.538C0.155 17.23 0.000666667 16.8457 0 16.385V1.615C0 1.155 0.154333 0.771 0.463 0.463C0.771666 0.155 1.156 0.000666667 1.616 0H9.5L14 4.5V16.385C14 16.845 13.846 17.2293 13.538 17.538C13.23 17.8467 12.8453 18.0007 12.384 18H1.616ZM9 5H13L9 1V5Z" fill=""/>
</svg>
