<svg width="16" height="20" viewBox="0 0 16 20" fill="none" xmlns="http://www.w3.org/2000/svg">
<path d="M5 16H9C9.28333 16 9.521 15.904 9.713 15.712C9.905 15.52 10.0007 15.2827 10 15V14L12 15.05V10.95L10 12V11C10 10.7167 9.904 10.4793 9.712 10.288C9.52 10.0967 9.28267 10.0007 9 10H5C4.71667 10 4.47933 10.096 4.288 10.288C4.09667 10.48 4.00067 10.7173 4 11V15C4 15.2833 4.096 15.521 4.288 15.713C4.48 15.905 4.71733 16.0007 5 16ZM2 20C1.45 20 0.979333 19.8043 0.588 19.413C0.196666 19.0217 0.000666667 18.5507 0 18V2C0 1.45 0.196 0.979333 0.588 0.588C0.98 0.196667 1.45067 0.000666667 2 0H10L16 6V18C16 18.55 15.8043 19.021 15.413 19.413C15.0217 19.805 14.5507 20.0007 14 20H2ZM9 7H14L9 2V7Z" fill=""/>
</svg>
